<?xml version="1.0" encoding="utf-8"?>
<!-- Generator: Adobe Illustrator 24.1.3, SVG Export Plug-In . SVG Version: 6.00 Build 0)  -->
<svg version="1.1" id="Layer_1" xmlns="http://www.w3.org/2000/svg" xmlns:xlink="http://www.w3.org/1999/xlink" x="0px" y="0px"
	 viewBox="0 0 56 56" style="enable-background:new 0 0 56 56;" xml:space="preserve">
<style type="text/css">
	.st0{fill:#FFFFFF;}
</style>
<path class="st0" d="M45.9,7.4h-35c-3,0-5.5,2.5-5.5,5.5v24.3c0,3,2.5,5.5,5.5,5.5h35c3,0,5.5-2.5,5.5-5.5V12.9
	C51.4,9.9,48.9,7.4,45.9,7.4z M47.8,37.5c0,0.9-0.8,1.7-1.7,1.7H10.7c-0.9,0-1.7-0.8-1.7-1.7V12.7c0-0.9,0.8-1.7,1.7-1.7h35.4
	c0.9,0,1.7,0.8,1.7,1.7C47.8,12.7,47.8,37.5,47.8,37.5z"/>
<path class="st0" d="M35.1,50.1H21.5c-1.1,0-2-0.9-2-2l0,0c0-1.1,0.9-2,2-2h13.6c1.1,0,2,0.9,2,2l0,0C37.1,49.2,36.2,50.1,35.1,50.1
	z"/>
</svg>
