<?xml version="1.0" encoding="utf-8"?>
<!-- Generator: Adobe Illustrator 24.1.3, SVG Export Plug-In . SVG Version: 6.00 Build 0)  -->
<svg version="1.1" id="Layer_1" xmlns="http://www.w3.org/2000/svg" xmlns:xlink="http://www.w3.org/1999/xlink" x="0px" y="0px"
	 viewBox="0 0 56 56" style="enable-background:new 0 0 56 56;" xml:space="preserve">
<style type="text/css">
	.st0{fill:#0C343D;}
</style>
<path class="st0" d="M20.5,44.6c0-0.3,0.1-0.6,0.2-0.9c4.1-11.1,8.1-22.2,12.2-33.3c0.3-0.8,0.7-1.4,1.6-1.5
	c0.7-0.1,1.3,0.2,1.7,0.8c0.4,0.7,0.3,1.3,0,2c-2.3,6.4-4.7,12.8-7,19.2c-1.7,4.6-3.3,9.1-5,13.7c-0.1,0.3-0.2,0.7-0.4,1
	c-0.5,0.7-1.2,1-2,0.8C20.9,46.2,20.4,45.6,20.5,44.6z"/>
<path class="st0" d="M9.5,27.7c2.4,2,4.7,3.9,7,5.8c1.3,1.1,1.6,2.1,0.9,3c-0.7,0.9-1.9,0.8-3.2-0.3C11.5,34,8.8,31.7,6,29.5
	c-1.5-1.2-1.5-2.3,0-3.5c2.8-2.3,5.6-4.6,8.3-6.9c0.1-0.1,0.2-0.2,0.3-0.3c1-0.8,2.1-0.7,2.7,0c0.7,0.8,0.5,1.9-0.4,2.7
	c-2.2,1.8-4.4,3.7-6.6,5.5C10.1,27.2,9.9,27.4,9.5,27.7z"/>
<path class="st0" d="M47.3,27.7c-2.5-2.1-4.9-4.1-7.4-6.1c-0.6-0.5-1-1-0.9-1.8c0.2-1.4,1.7-2.1,2.8-1.2c3.2,2.6,6.3,5.2,9.5,7.9
	c0.9,0.8,0.8,1.9-0.2,2.7c-3,2.5-6.1,5.1-9.1,7.6c-0.8,0.7-1.9,0.6-2.6-0.1c-0.7-0.8-0.6-1.9,0.3-2.6c2.3-1.9,4.6-3.8,6.9-5.8
	C46.9,28.1,47.1,27.9,47.3,27.7z"/>
</svg>
