<?xml version="1.0" encoding="utf-8"?>
<!-- Generator: Adobe Illustrator 24.1.3, SVG Export Plug-In . SVG Version: 6.00 Build 0)  -->
<svg version="1.1" id="Layer_1" xmlns="http://www.w3.org/2000/svg" xmlns:xlink="http://www.w3.org/1999/xlink" x="0px" y="0px"
	 viewBox="0 0 56 56" style="enable-background:new 0 0 56 56;" xml:space="preserve">
<style type="text/css">
	.st0{fill:#0B333C;}
</style>
<path class="st0" d="M27.8,49.3c-6.4,0-12.8,0-19.2,0c-2.8,0-4.3-1.5-4.3-4.3c0-9.2,0-18.4,0-27.7c0-2.9,1.5-4.4,4.4-4.4
	c2.4,0,4.8,0,7.1,0c0.7,0,1,0,1-0.9c0.1-4.1,2.3-6.3,6.4-6.3c3.2,0,6.3,0,9.5,0c3.8,0,6.1,2.3,6.1,6.1c0,0.9,0.2,1.1,1.1,1.1
	c2.5-0.1,4.9,0,7.4,0s4.1,1.5,4.1,4c0,9.4,0,18.9,0,28.3c0,2.5-1.5,4-4.1,4C40.9,49.3,34.3,49.3,27.8,49.3z M47.4,30.6
	c-13,5.8-25.9,5.8-38.7,0.1c-0.2,0.4-0.1,0.8-0.1,1.1c0,4,0,8.1,0,12.1c0,1,0.2,1.3,1.2,1.2c8.3,0,16.6,0,24.9,0c3.9,0,7.8,0,11.8,0
	c0.6,0,1,0.1,1-0.8C47.3,39.9,47.4,35.3,47.4,30.6z M27.9,30.8c6.4,0,12.5-1.5,18.3-4.3c0.8-0.4,1.2-0.8,1.1-1.8
	c-0.1-2.2-0.1-4.3,0-6.5c0-0.9-0.2-1.3-1.2-1.3C42.9,17,39.8,17,36.6,17c-9.1,0-18.2,0-27.3-0.1c-0.8,0-1,0.3-0.9,1
	c0,2.3,0,4.6,0,6.9c0,0.8,0.2,1.2,0.9,1.5C15.2,29.4,21.4,30.8,27.9,30.8z M27.8,12.9c2,0,4.1,0,6.1,0c0.3,0,0.7,0.2,0.9-0.2
	c0.4-0.9-0.2-2.7-1.1-2.7c-3.9-0.1-7.7-0.1-11.6,0c-1.2,0-1.1,1.4-1.1,2.3c0,1.1,0.9,0.5,1.3,0.6C24.2,12.9,26,12.9,27.8,12.9z"/>
<path class="st0" d="M28,23.7c1.1,0,2.2,0,3.4,0c1.3,0,2.2,0.9,2.2,2.1c0,1.1-0.9,2-2.1,2c-2.3,0-4.7,0-7,0c-1.4,0-2.2-0.8-2.1-2.1
	c0-1.2,0.8-2,2.2-2C25.7,23.7,26.9,23.7,28,23.7z"/>
</svg>
