<?xml version="1.0" encoding="utf-8"?>
<!-- Generator: Adobe Illustrator 24.1.3, SVG Export Plug-In . SVG Version: 6.00 Build 0)  -->
<svg version="1.1" id="Layer_1" xmlns="http://www.w3.org/2000/svg" xmlns:xlink="http://www.w3.org/1999/xlink" x="0px" y="0px"
	 viewBox="0 0 2084 496" style="enable-background:new 0 0 2084 496;" xml:space="preserve">
<style type="text/css">
	.st0{fill:#152F38;}
	.st1{fill:#152F37;}
	.st2{fill:#162E38;}
	.st3{fill:#152E38;}
	.st4{fill:#142E36;}
	.st5{fill:#1E2B2E;}
	.st6{fill:#1F292D;}
	.st7{fill:#1D2E2D;}
	.st8{fill:#112F2C;}
	.st9{fill:#1F2B32;}
	.st10{fill:#1F292E;}
	.st11{fill:#162E37;}
	.st12{fill:#182D36;}
	.st13{fill:#182D32;}
	.st14{fill:#1C2933;}
	.st15{fill:#1D2D2F;}
	.st16{fill:#1D2B35;}
	.st17{fill:#1F2A2C;}
	.st18{fill:#142E3A;}
	.st19{fill:#13303A;}
	.st20{fill:#0A1418;}
	.st21{fill:#1F292F;}
	.st22{fill:#1A2B32;}
	.st23{fill:#172E36;}
	.st24{fill:#1E292E;}
	.st25{fill:#132B30;}
	.st26{fill:#162E39;}
	.st27{fill:#162F37;}
	.st28{fill:#152E39;}
</style>
<g>
	<path class="st0" d="M976.6,4.4h0.3c1,5.5,1.7,11.3,0.1,16.7c-1.3,4.6-4.9,8-8.5,10.9c0.2,0.5,0.5,1.5,0.7,1.9
		c-1.4,0.3-2.7,0.6-4.1,0.8c-0.9-0.1-1.8-0.1-2.7-0.1c-0.7-6.5-0.4-13.2,2.3-19.3C967.1,10.4,971.8,7,976.6,4.4z"/>
	<path class="st0" d="M988.5,21.8c5.1-1.2,10.4,0.3,15.3,2c-3.8,4.5-9,8-14.9,9c-4.1,0.5-8.2-0.9-11.9-2.5
		C980.3,26.9,983.9,23.4,988.5,21.8z"/>
	<g>
		<path class="st0" d="M537.1,434.4c6.1-5.5,14.6-7.9,22.7-7.1c14.6,1.4,26.3,15.3,26.2,29.8c0.4,6.8-0.9,13.8-4.6,19.7
			c-4.8,8-13.3,13.4-22.5,14.7h-5.7c-5.3-1-10.6-2.6-14.9-6C522.6,473.7,521.9,447,537.1,434.4z M553.6,430.5
			c-5.7,0.6-10.5,4.4-13.1,9.4c-4.3,7.9-4.2,17.3-3.6,26.1c1,7.2,3.5,14.8,9.6,19.3c6.7,4.6,16.7,3.5,22.3-2.5
			c5.8-5.5,6.8-14.1,7.1-21.7c0-8.3-0.9-17.2-5.9-24.1C566.3,432,559.7,429.7,553.6,430.5z"/>
	</g>
</g>
<g>
	<path class="st1" d="M1087.4,4.4h1.3c3.6,3,8,5.4,10.4,9.7c3.8,6.7,3.3,14.6,3.1,22l-0.1,0c-2.4-0.7-4.6-1.5-6.9-2.4
		c0.2-0.5,0.5-1.4,0.7-1.8c-3.6-2.9-7.2-6.2-8.5-10.8C1085.8,15.7,1086.6,9.9,1087.4,4.4z"/>
	<path class="st1" d="M1006.8,171.7c4.4,5.5,8.2,11.5,12.5,17c-6.8,1.1-13.7,0.5-20.6,0.6c-17.2,0-34.3,0.1-51.5-0.4
		c2.5-0.6,4.9-1.2,7.4-1.7c18.7-3.3,37.5-6.2,56.2-9.3C1009.6,175.8,1008.1,173.8,1006.8,171.7z"/>
	<path class="st1" d="M1168.7,429.9c0.8-0.7,1.5-1.7,2.8-1.4c4.6-0.1,9.3,0,13.9,0c12.7,15.3,25.2,30.8,37.8,46.2
		c0.1-12.1,0-24.1,0-36.2c-0.1-2.3,0-4.9-1.6-6.7c-2.2-1.8-5.2-1.4-7.8-1.8c0.9-0.6,1.6-1.7,2.8-1.4c6.3,0,12.6-0.2,18.8,0.1
		l0.9,1.4c-2.8,0.3-6.1,0-8.1,2.4c-0.8,1.6-1,3.4-1,5.2c-0.2,18,0.3,35.9-0.2,53.9c-2.7-1.6-4.5-4.3-6.5-6.7
		c-7.5-9.2-15-18.4-22.5-27.6c-4.3-5-8-10.6-12.9-15.1c-0.2,12.6-0.1,25.1-0.1,37.7c0.3,2.4,0,5.4,2,7.1c1.8,1.7,4.5,1.1,6.8,1.4
		v1.6c-7.3-0.1-14.7,0.2-22-0.2c1.4-2.8,5.2-0.7,7.2-2.7c2.2-1.4,1.9-4.1,2-6.3c0.1-14.8,0-29.5,0-44.3
		C1178.2,432.4,1173.7,430.1,1168.7,429.9z"/>
</g>
<g>
	<path class="st2" d="M934.9,30.1c1.4-5.7,5.5-10.4,10.1-13.8c2.8,4,3.3,9.1,3.7,13.8c0.4,6.2-3.4,11.5-7.4,15.8
		c-0.1,0.2-0.4,0.5-0.6,0.7c-0.2,0.8-0.3,1.7-0.4,2.5c-1.1,0.6-2.1,1.3-3.1,2c5.5-1.4,11.3-3.5,17-1.8c5.8,1.9,10.8,5.9,14.4,10.8
		c-5,2.1-10.4,4.2-15.9,3.2c-6.9-1.4-13-5.4-18-10.3c-7.5,5.1-14.2,11.1-20.9,17.1c5.4-2.6,11.1-5.7,17.3-4.9
		c6.1,0.8,11.5,4.3,16.2,8c-4.8,3.4-10.3,6.5-16.3,6.4c-7.1-0.5-13.7-3.5-19.5-7.3c-6.3,6.2-12.1,13-17,20.3
		c4.5-3.3,9.1-6.9,14.8-7.7c6.7-0.6,13.1,2,18.9,5.1c-4,4.3-8.9,8.2-14.8,9.2c-7.2,1-14.5-0.7-21-3.8c-4.7,7-8.8,14.5-12.5,22.1
		c3.8-3.7,7.8-7.9,13.2-9.2c6.4-1.5,13.1-0.2,19.2,2c-3.2,4.4-6.8,8.9-11.9,11.1c-7.2,3-15.2,2.5-22.6,0.8c-3,7.2-6.1,14.4-7.7,22.1
		c2.7-3.5,5.3-7.4,9.3-9.5c6.4-3.3,13.9-3.1,20.9-2c-2.5,5.1-5.4,10.3-10.2,13.5c-6.6,4.2-14.6,4.8-22.2,4.9
		c-2,8.1-3.3,16.3-4.3,24.6c1.8-4.9,4.2-9.8,8.4-13c5.8-4.4,13.3-5.3,20.3-5.6c-1.5,5.7-3.6,11.7-8.1,15.8c-5.9,5-13.6,7.3-21.2,8.3
		c-0.5,8-0.5,16.1,0,24.1c1.6-5,2.8-10.6,6.7-14.4c5.1-5,12.1-7.5,19-8.7c-0.4,5.8-1.5,11.9-5,16.7c-5,6.4-12.5,10.1-20.1,12.5
		c0.9,7.5,2.6,14.8,3.9,22.2c0.9-4.9,1.3-10.2,4.1-14.5c4.2-6.2,11-9.9,17.8-12.6c0.9,5.2,0.7,10.6-1.1,15.6
		c-3.3,8.3-10.9,14-18.6,18.1c1.9,7.4,5.1,14.4,7.6,21.5c-0.2-5.7-0.8-11.9,2-17.1c3.3-6.3,9.1-10.7,14.9-14.4
		c1.9,5.8,2.7,12.1,1.3,18c-2.5,8-8.5,14.2-14.8,19.4c2.8,6.1,6.5,11.7,9.9,17.5c-0.3-5.1-1.4-10.4,0.2-15.4
		c2.4-6.7,7.2-12.2,12.6-16.7c2.6,5.8,5,12.1,4.1,18.6c-1.2,8.2-6.1,15.1-11.1,21.4c4.1,5.1,8.3,10.3,13,15c-1.7-4.5-3.7-9.3-3-14.2
		c1.2-7.4,4.9-14.1,9.8-19.7c4,5.6,7.6,12.1,7.5,19.2c-0.4,7.7-3.4,15.1-7.4,21.7c4.7,4.6,9.9,8.7,15.1,12.7
		c-2.7-4.5-5.4-9.4-5.4-14.8c0.1-7.2,2.9-14.1,6.3-20.4c6.2,5.8,11.7,13.5,11.3,22.4c0.3,6.4-1.9,12.5-3.5,18.6
		c5.2,4.4,11.5,7.1,17.4,10.5c-3.2-3.8-6.9-7.6-8.2-12.6c-2.1-7.8-0.4-16.1,2.1-23.6c6.4,4.1,12.5,9.7,14.7,17.2
		c2,7.5,1.7,15.4,0,22.9c5.9,2.6,12.1,4.7,18.3,6.4c-3.8-3.2-7.9-6.4-9.9-11c-3.3-7.4-3.1-15.8-2-23.6c6.7,2.4,12.9,6.6,16.8,12.7
		c4.1,7.2,5.4,15.8,5.2,24c13,2.6,25.7,6.6,37.8,12c12.1-5.4,24.8-9.5,37.8-12c-0.1-6.3,0.7-12.7,2.8-18.6
		c2.8-8.8,10.8-15.2,19.5-18c0.5,7.9,1.2,16.2-2.2,23.6c-2,4.6-6.1,7.8-9.9,10.9c6.2-1.6,12.4-3.7,18.3-6.3
		c-1.5-6.7-1.7-13.7-0.6-20.4c1.5-8.6,8.1-15.2,15.3-19.7c2.5,7.3,4.1,15.2,2.3,22.9c-1.2,5.3-5,9.3-8.4,13.2
		c5.9-3.3,12-6.2,17.3-10.4c-2.6-8.4-5-17.5-2.5-26.3c2.1-5.5,5.4-10.8,10.3-14.3c3.7,5.6,5.7,12.3,6.2,19
		c0.4,5.7-2.4,10.9-5.3,15.7c5.2-3.9,10.3-8.1,15.1-12.6c-3.8-6.3-6.8-13.3-7.4-20.7c-0.5-7.5,3.3-14.5,7.7-20.3
		c4.6,6,8.8,12.7,9.6,20.3c0.6,4.8-1.3,9.3-2.9,13.7c4.8-4.7,9-9.8,13.1-15.1c-5.4-6.2-10-13.5-11.3-21.8c-0.6-6.3,1.6-12.5,4.5-18
		c5.6,5.1,11,11.1,12.9,18.7c1.2,4.5-0.2,9.1-0.5,13.6c3.2-5.8,7.7-11.1,9.7-17.5c-4.2-4.7-9.4-8.6-12.2-14.4
		c-4.3-6.9-3.1-15.4-1.4-23c6.3,3.1,11.8,7.9,15.2,14.1c2.9,5.3,2.4,11.6,1.9,17.4c2.8-7.2,6-14.2,7.6-21.8
		c-6.8-3.6-13.3-8.5-17.2-15.3c-3.2-5.5-2.6-12.2-2.3-18.3c6.8,2.7,13.6,6.4,17.8,12.6c2.9,4.2,3.1,9.4,3.8,14.3
		c1.8-7.3,3.3-14.6,4.2-22.1c-6.7-2.1-13.3-5.4-18.3-10.4c-4.8-5-6.6-12.1-6.7-18.8c6.8,1.2,13.8,3.7,18.8,8.6
		c3.9,3.8,5.3,9.3,6.6,14.5c0.7-8,0.6-16.1,0.1-24.1c-7.1-1-14.3-3-20.1-7.4c-5.2-4-7.6-10.5-9.2-16.6c6.3,0.4,13,1,18.5,4.4
		c5,3.1,8.3,8.5,10,14c-0.4-8.2-2.1-16.4-4.1-24.4c-7.1,0-14.6-0.7-21-4.1c-5.5-3.1-8.8-8.7-11.3-14.3c6.7-0.9,13.8-1.2,20.1,1.7
		c4.7,2.2,7.6,6.6,10.7,10.5c-2.5-7.7-5-15.4-8.4-22.8c-7.2,1.7-15,2.2-22-0.5c-5.4-2.2-9.2-6.8-12.5-11.4
		c6.3-2.3,13.2-3.6,19.8-1.9c5.1,1.5,8.9,5.5,12.6,9.1c-3.7-7.6-7.8-15.1-12.5-22.1c-6.5,3.1-13.8,4.8-21,3.8
		c-5.9-1.1-10.8-5-14.8-9.2c5.7-3.1,12.1-5.7,18.8-5.1c5.9,0.8,10.8,4.6,15.4,8.2c-5.2-7.5-11-14.6-17.5-20.8
		c-5.9,3.9-12.6,6.8-19.7,7.3c-5.9,0-11.3-3-16-6.3c4.6-3.9,10-7.2,16.1-8.1c6.3-0.8,12.1,2.3,17.5,5.1c-6.7-6.1-13.6-12-20.9-17.3
		c-4.6,4.3-9.8,8.1-15.9,9.8c-6,1.9-12.4,0.2-17.9-2.6c2.1-4.4,6.6-7.2,10.8-9.5c6.4-3.5,14-1.4,20.5,0.7
		c-7.3-5.1-14.9-9.5-22.9-13.5c-4,5.5-9,10.5-15.4,13.2c-5.4,2.1-11.3,1.1-16.7-0.2c3.5-6.1,8.6-12.2,15.7-14.1
		c4.6-0.8,9.3-0.1,13.9-0.5l0.1,0c7.7,2.1,14.4,6.7,21.3,10.6c-2.6-3.5-5.7-6.8-7.1-11c-1.5-6.7-0.2-13.7,2.6-19.8
		c4.4,3.4,8.7,7.7,10.3,13.2c1.7,6.7,0.7,13.8-1.4,20.4c6.7,4.5,13.2,9.4,19.3,14.7c-2.3-4.3-5.1-8.7-4.9-13.7
		c-0.1-6.4,2.9-12.2,6.1-17.5c4.7,5,8.7,11.4,8,18.5c0,5.9-2.6,11.2-4.4,16.6c5.1,5.7,11,10.7,15.5,17c-1.6-4.4-3-9.1-2.1-13.9
		c1.3-6.1,5.2-11.3,9.2-15.9c3,4.7,5.7,10.1,5.4,15.8c-0.4,7.2-4,13.8-8.1,19.6c4.7,6.6,8.9,13.6,12.9,20.6
		c-1.2-5-1.9-10.4,0.1-15.3c2.5-5.8,7-10.4,12.1-14c2.3,5.7,3.6,12,2.2,18c-2.1,6.7-6.5,12.5-11.6,17.2c3.3,7.7,7.1,15.3,8.9,23.6
		c0-5.3-0.1-11,2.7-15.8c3.3-5.8,9.2-9.6,14.9-12.7c1.3,5.8,1.8,12-0.4,17.6c-3.2,6.9-8.9,12.2-15.1,16.3c2.1,7.6,3.8,15.3,5.2,23
		c0.4-4.3,1.1-8.8,3.7-12.3c4.4-6,11.4-9.4,18.4-11.5c0,6.2-0.4,12.8-4,18c-4.3,6-10.8,10.2-17.5,13.1c0.9,7.1,1.1,14.2,1,21.4
		c1.6-3.7,3.2-7.5,6.3-10.3c5.4-5,12.8-6.8,19.8-7.8c-0.8,6.1-2.4,12.4-6.7,17c-5.4,5.5-12.7,8.6-20,10.5
		c-0.3,6.9-1.6,13.8-2.9,20.6c2.4-3.7,4.8-7.6,8.8-9.8c6.2-3.6,13.7-4.2,20.7-4.1c-1.8,6.3-4.9,12.5-10.2,16.4
		c-6.3,4.3-14,6-21.5,6.6c-1.6,6.3-3.7,12.3-5.7,18.5c3.6-3.7,7.6-7.3,12.9-8.2c6.1-1,12.5-0.7,18.6,0.7c-3.1,5.7-7,11.3-12.9,14.3
		c-7.1,3.4-15.3,3.8-23,3.2c-2.8,6-6,11.7-9.3,17.4c3.7-2.4,7.4-5.2,11.8-6c7.4-1.3,14.8,0.9,21.5,3.8c-4.1,4.9-8.6,9.8-14.8,11.9
		c-8,2.6-16.4,1.1-24.4-0.6c-4.7,5.4-8.6,11.4-13.7,16.5c4.5-2.5,9.4-5,14.7-4.8c7.4,0.2,14.5,3.4,20.5,7.6
		c-4.8,4.2-10.3,8.2-16.7,9.3c-7.5,0.9-15-0.9-21.8-4c-1.2-0.3-2.7-1.5-3.8-0.4c-4.9,4.3-9.5,9-14.7,13c4.8-1.4,9.8-3.2,14.8-2.1
		c7.6,1.5,14,6.2,19.6,11.2c-5.4,3.3-11.2,6.4-17.6,6.4c-9.1,0.2-17.2-4.6-24.6-9.3c-5.6,3.1-10.6,7.3-16.5,10
		c5.2-0.1,10.7-0.9,15.5,1.5c6.5,3.2,12.1,8.2,16,14.3c-6.5,2.6-13.8,4.7-20.7,2.8c-8.1-2.2-14.7-7.6-20.8-13
		c-6.2,2.2-12.1,5.4-18.6,6.9c5.4,0,11,0.6,15.6,3.7c6.3,4.3,11,10.6,14,17.5c-6.9,1-14.3,1.9-21-0.7c-7.9-3.8-14.4-10.2-19-17.6
		c-12.3,2.1-24.4,5.9-35.9,10.8c8.9,4.9,17.5,10.5,24.8,17.6c-2,2-4,3.9-6.1,5.8c-7.7-7.8-16.7-14.3-26.4-19.5
		c-9.7,5.2-18.7,11.7-26.4,19.5c-2-1.9-4-3.8-6-5.7c7.3-7.1,15.9-12.8,24.8-17.6c-11.5-4.9-23.5-8.6-35.8-10.9
		c-5.1,7.9-12.1,15.1-21.1,18.4c-6.2,1.6-12.8,1-19-0.1c3.3-7,8-13.5,14.6-17.8c4.2-2.8,9.5-3.2,14.4-3.5c-6.2-1.9-12.1-4.4-18-7.1
		c-5.6,5.8-12.4,10.6-20.1,13.1c-7.2,2.2-14.7,0-21.4-2.7c4.1-6.1,9.8-11.4,16.6-14.5c4.6-2.2,9.8-1.4,14.7-1.3
		c-5.6-3.1-10.9-6.7-16.3-10.2c-6.6,4.9-14.4,8.9-22.7,9.5c-7.1,0.6-13.7-2.7-19.5-6.4c5.6-5.1,12-9.7,19.6-11.2
		c5.1-1.1,10.1,0.7,14.9,2.1c-5-3.9-9.6-8.2-14.1-12.6c-1.2-1.6-3.1-0.5-4.5,0.1c-6.9,3.1-14.6,5-22.2,3.8c-6-1.5-12-4.7-15.8-9.7
		c6.2-3.5,12.8-6.9,20.1-7c5.4-0.2,10.2,2.3,14.8,4.9c-5-5-8.9-10.9-13.4-16.3c-5.3,0.2-10.6,2.4-16,1.8c-9.5,0.3-18.3-5.5-23-13.5
		c6.7-2.5,13.9-4.8,21.1-3.5c4.7,0.8,8.5,3.7,12.3,6.4c-3.7-5.7-6.8-11.7-9.7-17.8c-7.8,0.6-16,0.2-23.1-3.2
		c-5.8-3-9.7-8.7-12.7-14.3c6-1.5,12.2-1.6,18.3-0.8c5.7,0.9,10,5,13.8,9c-2.8-6.3-4.5-13-6.4-19.6c-7.3,0-14.6-2-20.8-5.9
		c-5.7-3.8-8.9-10.4-10.8-16.8c7-0.2,14.4,0.5,20.6,4c3.9,2.2,6.4,6,8.7,9.7c-1-6.8-2.2-13.6-2.7-20.4c-7.1-1.8-14.2-4.8-19.5-10
		c-4.6-4.6-6.3-11.2-7.1-17.5c7,0.9,14.4,2.8,19.8,7.7c3.2,2.8,4.8,6.9,6.4,10.8c-0.3-7.3,0.2-14.6,0.9-21.9
		c-6.8-2.9-13.2-7.1-17.5-13.2c-3.6-5.2-4-11.8-3.9-17.9c6.4,1.8,12.6,4.8,17.1,9.8c3.2,3.4,4.2,8.2,5.6,12.5
		c0.8-7.3,2.7-14.5,4.6-21.6c-6.1-4-11.7-9.1-14.9-15.8c-2.6-5.7-2-12.2-0.7-18.1c5.8,3.1,11.6,7,15,12.8c2.7,4.6,2.5,10,2.5,15.1
		c2.3-8,5.6-15.6,9-23.1c-5-4.6-9.3-10.3-11.5-16.9c-1.8-6.2-0.2-12.6,2.2-18.4c5.4,4.1,10.4,9.1,12.6,15.7
		c1.1,4.3,0.4,8.8,0.2,13.2c3.3-7.1,7.7-13.7,12.2-20.1c-4.1-5.8-7.6-12.4-8.1-19.6c-0.2-5.8,2.3-11.1,5.4-15.9
		c4.3,4.8,8.3,10.3,9.4,16.9c0.7,4.4-0.8,8.8-2.3,12.9c4.8-6.1,10.1-11.8,15.9-17c-3.1-6-5.1-12.7-4.8-19.5c0.4-6,4-11.1,7.8-15.5
		c3.6,5.1,6.3,11.2,6.3,17.5c0.1,5.1-2.8,9.6-5.2,13.9c6.2-5.4,12.7-10.4,19.6-15C934.4,43.4,933.7,36.6,934.9,30.1z"/>
	<path class="st2" d="M1060.6,23.9c5.8-2,12.9-4.1,18.6-0.6c3.6,1.7,5.7,5.5,9.5,7c-4,1.1-8.1,3-12.3,2.7
		C1070.1,32.2,1064.7,28.5,1060.6,23.9z"/>
	<path class="st2" d="M960.3,37.4c5.4-0.3,10.7-1.1,16.1-0.8c7,2.2,12.1,8,15.6,14.2c-5.5,1.3-11.5,2.4-17,0.1
		c-5.4-2.4-10-6.4-13.6-11.1C961.2,39.2,960.6,38,960.3,37.4z"/>
	<g>
		<path class="st2" d="M386.4,60c22.1-1.4,44.7,3.3,63.7,14.8c22.4,13.5,40.6,34,51,58c9.7,23.1,12.1,48.8,9,73.5
			c-2.6,21-10.1,41.6-22.6,58.7c-10.7,14.6-24.2,27.4-40.1,36.2c-17.4,9.8-37.5,14.5-57.4,14.1c-23.2,0-46.6-6.9-65.6-20.5
			c-24.3-17.1-41.8-43.4-48.1-72.5c-6.1-28-5.4-58.1,4.7-85.1c9.7-25.8,28.9-47.6,52.5-61.6C349.5,66.2,367.9,61,386.4,60z
			 M377.5,73.8c-15.2,2.4-29.2,10.8-38.8,22.8c-14.1,17.2-20.7,39.3-23.4,61c-2.4,20.7-2.1,41.7,0.7,62.3
			c3.3,21.2,10.3,42.4,24.1,59.2c9.4,11.7,23,19.9,37.9,22.3c16,2.6,33,0.6,47.3-7.2c16.5-9,29.3-24.4,35.6-42.1
			c8.9-24.5,9.8-51.1,8.7-76.9c-1-17.9-3.6-36-10.1-52.8c-5.8-15.2-15.1-29.8-28.9-38.9C415.1,73.4,395.5,71,377.5,73.8z"/>
	</g>
	<path class="st2" d="M643.7,67.8c18.9-7.1,39.5-9,59.6-7.4c17.1,1.2,33.1,7.9,49.1,13.4c3.4,0.9,7.4,2.8,10.7,0.4
		c4.5-3.1,4.6-9.2,4.8-14.2c2.3-0.1,4.6-0.1,6.8-0.2c2.3,25.7,4,51.4,6.4,77c-2.3,0-4.5,0-6.7,0c-5.9-17.7-14.5-35.6-29.4-47.5
		c-12-9.9-27.4-15.3-42.8-16.4c-19.3-1.5-39.6,2-55.9,13c-13.6,9-23.6,22.5-30.5,37.1c-8,16.5-11.8,34.8-12.6,53.1
		c-1,23.1,2.4,46.6,11.8,67.9c7.4,17,18.2,33.1,33.7,43.6c12.3,8.3,26.5,14,41.3,15.2c19.8,1.7,39.9-3.4,57.2-13.1
		c0-26,0.1-52.1-0.1-78.1c-0.3-7.8-0.4-16.8-6.7-22.5c-6.7-6.4-16.6-5.9-25.2-6.4c0-2.2,0-4.3,0-6.5c31.4,0,62.9,0,94.3,0
		c0,2.2,0,4.3,0,6.5c-7.1-0.1-15.2,0.2-20.6,5.5c-5.9,5.7-6,14.6-6.6,22.3c-0.2,27.7-0.1,55.3-0.1,83c-19,10.5-39.9,17.9-61.5,20.4
		c-20.2,2.3-40.8,2-60.8-2.1c-17-3.4-33.5-10-47.7-20.1c-25.5-18.3-43.5-46.8-48.7-77.7c-4.9-28.1-0.3-57.8,12.9-83.2
		C590.5,102.9,614.2,79,643.7,67.8z"/>
	<path class="st2" d="M18.7,65.6c16-0.7,32.1,0.2,48.1-0.5c8.8-0.1,17.7,0.8,26.5,0.2c7.2-0.5,14.4,0,21.6,0.1
		c4.8-0.3,9.5-0.2,14.3,0.1c0,2.1,0,4.2-0.1,6.4c-7.3,0-14.6,0.3-21.8,1.8c-6,1.4-11.9,4.7-15.4,9.9c-2.3,3.6-2.6,8-3,12.1
		c-0.4,6.9-0.8,13.8-0.7,20.7c0,47.8,0,95.6,0,143.4c-0.1,6.5,0.2,13.1,0.9,19.6c0.5,3.8,1.4,7.9,4.4,10.6c2.8,2.7,6.7,3.4,10.4,3.8
		c9.2,0.8,18.4,0.7,27.6,0.7c12.7,0,25.4,0.2,38-1.3c5.2-0.7,10.5-1.4,15.4-3.5c9.6-4,17.6-11.2,23.5-19.7
		c5.9-8.6,10.3-18,14.3-27.6c2,0.4,3.9,0.8,5.9,1.2c-6.8,22.1-14,44-20.8,66.1c-7.4,0.6-14.8,0.2-22.2,0.3c-55.7,0-111.3,0-167,0
		v-6.8c7.1,0,14.4,0.6,21.1-2c5.7-2.1,10.8-6.8,12.1-13c1.7-7.1,1.7-14.4,1.8-21.6c0-52.7,0-105.4,0-158.1
		c-0.1-8.1-0.2-16.3-2.6-24.1c-1.6-5.4-6.6-8.9-11.6-10.7c-6.6-2.5-13.8-1.9-20.8-1.9V65.6z"/>
	<path class="st2" d="M1233.2,65.5c7,0.2,13.9-0.9,20.8-0.1c8.9-0.6,17.8,0.1,26.6,0c4.9-0.6,9.8-0.3,14.6,0
		c10.8-0.8,21.7,0.3,32.5-0.2c5.3,0.5,10.7-0.5,16,0.2c0,2.1,0,4.2,0,6.4c-8.9,0.1-18.1,0.2-26.6,3.3c-5.9,2.5-11.7,7.2-12.8,13.9
		c-2,11.6-1.5,23.4-1.6,35.1c0,46.5,0,92.9,0,139.4c0,7,0,14.2,2,21c1.3,4.9,6,8.3,11,8.7c9.8,1.2,19.7,1,29.6,1.1
		c16.4-0.1,33,0.6,49.1-3.1c12.5-3.4,23-12.5,29.9-23.3c5.3-8.1,9.4-16.8,13.1-25.7c2,0.4,3.9,0.8,5.9,1.3c-6.9,22-14,44-20.9,66
		c-9.6,0.7-19.3,0.1-28.9,0.3c-53.5-0.2-106.9,0.3-160.4-0.2c0-2.2,0-4.3,0-6.5c9.4,0,20.4,0.9,27.9-6.1c6.9-5.8,6.4-15.5,7.1-23.7
		c0.2-53.4,0-106.7,0.1-160.1c0-9.5,0.2-19.3-2.5-28.5c-1.6-6-7.2-9.8-12.9-11.6c-6.4-2.1-13.1-1.4-19.7-1.6
		C1233.2,69.8,1233.2,67.6,1233.2,65.5z"/>
	<path class="st2" d="M1483.4,65.6c12.3-0.7,24.6,0.1,36.9-0.5c11.1,1.1,22.2-0.6,33.3,0.3c7.2,0,14.5,0.1,21.7,0.1
		c4.2,0.1,8.4-0.8,12.6,0c-0.1,2.1-0.1,4.3-0.1,6.4c-9.2-0.3-19.4-0.6-26.9,5.4c-7.2,5.3-7.1,15.2-7.7,23.3
		c-0.2,54.7,0,109.4-0.1,164.1c0.1,8.4-0.4,17,1.8,25.2c1.6,6,7.6,9.3,13,11.3c6.5,2.5,13.5,1.9,20.3,2.2c0,2,0,4,0,6
		c-2.7,0.5-5.4,0.7-8.1,0.6c-32.3-0.2-64.5,0.3-96.8-0.2c0-2.2,0-4.4,0-6.6c9.5,0,20.5,0.8,28.1-6.1c4.8-3.8,5.5-10.2,6.2-15.8
		c0.9-13.4,1-26.8,0.5-40.2c0.4-9.5,0.2-19,0.2-28.5c0.4-9.9-0.5-19.7,0.1-29.5c-0.1-25.2,0-50.4,0-75.6c-1-8.8,0.8-18.7-4.2-26.5
		c-7.5-8.8-20.1-9.7-30.9-9.2C1483.3,69.8,1483.4,67.7,1483.4,65.6z"/>
	<path class="st2" d="M1625.8,65.6c5.1-1.1,10.2,0.3,15.3-0.3c12.1,0.4,24.2,0.1,36.3,0.2c17.7-0.2,35.4-0.2,53,0
		c12.1-0.7,24.2,0.4,36.3-0.3c5.3,0.5,10.5-0.1,15.8,0.1c8.2,0.7,16.5-0.6,24.7,0.5c0.6,17.8,1.8,35.6,2.3,53.4c-2,0-4,0-6,0
		c-2.5-7.9-4.9-16.1-9.5-23.1c-5-7.7-13.2-13.5-22.2-15.4c-9.1-1.9-18.4-2.1-27.7-2c-16.2,0-32.4,0-48.6,0c0,32-0.1,64,0,96
		c14.9,0,29.8,0,44.7,0c7.9-0.4,16.5-1.3,22.4-7.1c6.1-6.7,7.4-16.1,8.8-24.7c0.1-3.4,4.6-1.5,6.7-1.9c0.1,27.7,0,55.3,0.1,83
		c-2.2,0-4.4,0-6.5,0c-0.5-8.7-0.7-18.4-6.7-25.3c-5.3-6.7-14.2-8.8-22.3-9c-15.8-0.1-31.5,0-47.3,0c-0.1,25.4,0,50.7,0,76.1
		c0.1,8.1-0.2,16.4,1.9,24.4c1.8,6.1,8,9.5,13.6,11.5c6.3,2.3,13.1,1.7,19.7,1.9c0,2,0,4,0.1,6c-2.7,0.7-5.4,0.7-8.1,0.6
		c-28.8-0.1-57.6,0-86.4,0c-3.5,0.1-7,0-10.4-0.3c0-2.2,0-4.3,0-6.5c9.5,0,20.4,0.8,28-6c4-3.1,5.3-8.2,6-13c1.6-13,1-26.1,1.1-39.2
		c0-46.8,0.1-93.7-0.1-140.5c-1-8,0.6-17.2-4.6-24.1c-7.7-8.3-19.8-9.2-30.4-8.6C1625.8,69.8,1625.8,67.7,1625.8,65.6z"/>
	<path class="st2" d="M1855.3,65.6c15.7-0.9,31.3,0.1,47-0.1c7.8,0.4,15.7-0.7,23.5-0.1c10.2-0.3,20.3-0.1,30.5-0.1
		c8.2,0.7,16.4-0.8,24.5,0.1c7.5-0.4,15.1,0.6,22.6-0.2c13.5,0.3,27-0.6,40.6,0.4c0.3,17.8,1.6,35.6,2.3,53.5c-2.3,0-4.6,0-6.9,0
		c-2.5-10-3.9-20.9-10.3-29.3c-4.3-5.1-10.3-8.8-16.9-9.9c-12.3-2-24.8-1.2-37.2-1.4c-16.6,0-33.3,0-49.9,0c0,32.2,0,64.4,0,96.5
		c19.6,0,39.2,0.1,58.8-0.1c8.1-0.4,17.1-1,23.5-6.6c7.7-7.5,8.9-18.7,10.1-28.8c2.1,0,4.2,0,6.3,0c0.3,28.5,0,56.9,0.1,85.4
		c-2.2,0-4.4,0-6.6,0c-1.1-6.8-1.9-13.7-4-20.3c-1.7-5.5-6.1-9.8-11.1-12.3c-7.8-3.8-16.7-4-25.2-3.9c-17.3,0-34.5,0-51.8,0
		c0,28,0,56,0,83.9c0.2,5.3-0.1,10.7,1.2,15.9c1.5,5.2,7.1,7.8,12.2,8.1c9.5,0.5,19.1,0.1,28.6,0.2c13.9-0.2,27.9,0.6,41.7-1.2
		c8.7-1,16.9-4.9,23.3-10.9c10.9-10,18.3-23,25.2-35.9c2.6,0,5.3,0,7.9,0v0.1c-1.4,2.8-2.7,5.7-3.6,8.7
		c-5.9,17.5-12.1,34.8-17.9,52.3c-6.2,0.6-12.5,0.3-18.8,0.4c-56.5,0-113.1,0-169.6,0c0-2.3-0.1-4.5-0.1-6.8
		c6.5,0,13.3,0.4,19.5-1.8c5.5-1.8,11.3-4.9,13.3-10.7c2.2-6.8,2-14.1,2.2-21.2c0.1-34.7,0-69.4,0-104.1
		c-0.2-22.6,0.3-45.1-0.3-67.7c-0.8-7.2-0.4-16.4-7.1-21c-8-5.6-18.3-5-27.6-4.8C1855.4,69.8,1855.3,67.7,1855.3,65.6z"/>
	<path class="st2" d="M842.5,426.9c0.3,0.1,1,0.4,1.3,0.5c0.4,6.6,1.5,13.2,1.3,19.8c-3-3-3.7-7.5-6.6-10.5c-8.2-9.3-25-8.3-32,1.9
		c-5.8,7.9-6.7,18.4-5,27.8c1.6,7.9,5.9,15.9,13.3,19.6c6.9,3.7,15.5,2.6,22.2-1.1c-0.1-6.3,0.1-12.6-0.1-19c-0.3-2.5-0.2-5.8-2.9-7
		c-1.5-0.4-3.1-0.5-4.6-0.7c-0.2-0.4-0.7-1.3-0.9-1.7c8.2,0.3,16.5-0.7,24.7,0.5c-2.3,1.3-6.4,1.2-7.1,4.4c-1,8,0.3,16.1-0.6,24.1
		c-5.2,3.9-12,5-18.2,6h-6.9c-8.7-1.2-17.7-4.4-23.2-11.6c-9.2-11-8.9-27.9-0.6-39.3c5.3-7.7,14-13.1,23.5-13.4
		c7.2-0.9,13.9,2.2,20.8,4C841.4,429.9,841.9,428.4,842.5,426.9z"/>
	<path class="st2" d="M1008.5,427.3c0.4,0,1.1-0.1,1.5-0.1c0.3,7.3,1.5,14.5,1,21.8c-2.5-4.4-3.8-9.6-7.5-13.1
		c-5.6-5.6-14.7-6.9-21.9-3.8c-6.1,2.4-9.9,8.3-11.7,14.4c-2.1,8-2.5,16.6-0.4,24.6c1.7,6.5,6.2,12.2,12.5,14.7
		c6.9,2.7,15.4,2.3,21.5-2.2c3.5-2.5,5.6-6.5,9.1-9.1c-2.7,9.8-12.7,16-22.3,17.2h-5.3c-5.5-0.8-11.2-2.4-15.6-6
		c-13.7-10.7-15-32.5-5-46.1c6.9-9.7,20.1-14.4,31.6-11.3c3.6,0.9,6.9,3.5,10.8,3C1007.3,429.9,1007.9,428.6,1008.5,427.3z"/>
	<g>
		<path class="st2" d="M1034,437.4c6.2-7.3,16.1-11.1,25.7-10.1c15,1.3,26.9,15.9,26.4,30.8c0.6,9.4-3,18.9-10,25.2
			c-4.6,4.6-10.8,7-17.1,8.2h-5.3c-12.5-1.2-23.6-10.7-26.3-23C1024.8,457.9,1026.3,445.7,1034,437.4z M1053.4,430.5
			c-7.4,0.8-12.9,7.2-14.9,14c-2.5,8.5-2.5,17.7-0.7,26.3c1.4,5.9,4.4,11.8,9.7,15.1c6.5,3.8,15.4,2.7,20.8-2.6
			c5.2-4.6,6.8-11.8,7.4-18.4c0.5-9.1,0-18.8-4.9-26.8C1067.2,432.4,1060,429.5,1053.4,430.5z"/>
	</g>
	<path class="st2" d="M1250.7,438.7c2.3-7.2,9.8-11.7,17.2-11.5c5.5-0.3,10.3,3.3,15.8,3.3c0.7-1.4,1.4-2.8,2.1-4.1
		c2.1,6.9,0.4,14.3,1,21.4c-0.4,0.2-1.2,0.5-1.6,0.7c-1-4.1-1.7-8.6-4.6-11.9c-4.7-5.4-13.9-8-19.9-3.3c-3.9,2.8-4.7,9.2-1.1,12.6
		c7.7,7.2,18.4,10,26.2,17.1c5.8,5.2,6.6,14.7,1.9,20.8c-3.3,4.6-8.8,7.1-14.3,7.8h-4.5c-5.3-0.9-10.2-3.8-15.8-3.5
		c-0.3,1.2-0.6,2.3-1,3.5h-1.6c0-7.1,0-14.2,0-21.3c0.4,0.1,1.2,0.2,1.7,0.3c1,4.2,1.7,8.8,4.9,12c5,4.8,13.1,7.1,19.6,4.1
		c4.2-1.9,7.2-7.1,5.5-11.6c-1.4-4.4-5.5-6.9-9.3-9.1c-6.1-3.6-12.8-6.6-18-11.5C1250.7,450.6,1248.6,444.2,1250.7,438.7z"/>
	<path class="st2" d="M1557.4,433.4c6.6-5.3,15.5-7,23.8-5.9c4.7,0.8,9,2.7,13.7,3.7c0.7-1.7,1.4-3.4,2.2-5c1.8,6.8,1.5,14,2,21
		c-3-2.8-3.7-7.2-6.5-10.3c-5.2-6.2-14.3-7.9-21.8-5.7c-6.3,1.7-11.1,7-13.5,12.9c-4.4,10.5-3.6,23,2.1,32.8
		c3.3,5.8,9.2,10.2,15.9,11.1c5.3,0.8,10.6-0.6,15.4-2.9c-0.1-7.6,0.5-15.1-0.3-22.7c-0.5-4.2-5.7-4.1-8.8-5.4
		c8.5-0.9,17.3-0.9,25.8,0c-2,0.7-4,1.3-6.1,1.9c-1,1.9-1.9,3.9-1.8,6.1c-0.2,7,0,14-0.1,20.9c-5.7,2.9-11.8,4.8-18.1,5.5h-6.9
		c-9.9-1.1-20-5.5-25.4-14.3C1539.8,463.4,1544.4,443.3,1557.4,433.4z"/>
	<path class="st2" d="M862.5,430.1c0.1-0.4,0.3-1.2,0.3-1.7c15.7,0,31.3,0,47,0c0.1,4.5,0.3,9,0.9,13.4c-0.4,0.1-1.3,0.2-1.7,0.3
		c-1-4-2.2-9.4-7.2-9.9c-7.2-0.7-14.4-0.1-21.6-0.3c0,8.1,0,16.1,0,24.2c4.5,0,9,0,13.5,0c2.4-0.1,5.1-0.1,7.1-1.7
		c2.3-2.1,1.5-5.8,3.9-7.9c0.6,7.4,0.2,14.9,0.2,22.3c-2.4-0.3-1.8-3.2-2.6-4.8c-0.4-3-3.6-4.3-6.3-4.5c-5.3-0.3-10.5,0-15.8-0.1
		c0,8.6-0.1,17.2,0.1,25.8c3.5,2,7.6,1,11.4,1.2c4.2-0.2,8.6,0.6,12.6-1.1c4.3-2.2,6.7-6.7,9-10.7c0.4-0.1,1.3-0.3,1.7-0.4
		c-1.3,5.3-3.4,10.5-5.2,15.7c-15.7-0.1-31.4,0-47.1,0l0-1.6c2.4-0.2,5.3,0.1,7.2-1.8c1.8-1.7,1.5-4.5,1.6-6.8
		c-0.1-14.8,0.2-29.6-0.2-44.3C871.5,430.6,866.2,429.9,862.5,430.1z"/>
	<path class="st2" d="M1368.1,430.1c0.1-0.4,0.3-1.3,0.4-1.7c8.9,0.1,17.7,0,26.6,0c0.1,0.4,0.3,1.2,0.4,1.7c-3.2,0-6.4,0.6-9.1,2.4
		c-1.4,4.5-1,9.3-1,13.9c0,8.5,0,17,0,25.5c0,4.4-0.4,9,1,13.3c6.2,1.5,12.7,0.9,19,0.6c5.1-0.1,9.6-3.7,11.6-8.3
		c1.1-1.6,1.4-4.3,3.8-4.5c-1.8,5.6-3.7,11.2-5.4,16.9c-15.7,0.1-31.4,0-47.1,0l0-1.6c3.4,0.4,8.3-0.7,8.3-5
		c0.2-16.1,0.3-32.2,0-48.3C1376.4,430.7,1371.4,430,1368.1,430.1z"/>
</g>
<g>
	<path class="st0" d="M962.4,34.7c0.9,0,1.8,0.1,2.7,0.1l1.5,1c3.2,0.4,6.5,0.3,9.8,0.7c-5.4-0.3-10.7,0.5-16.1,0.8
		c0.3,0.6,0.8,1.8,1.1,2.4c-0.4-0.4-1.1-1.3-1.5-1.8c-6.7,3.4-13.2,7.1-19.6,11.1c0.1-0.8,0.2-1.7,0.4-2.5c0.1-0.2,0.4-0.5,0.6-0.7
		c5.2-2.5,10-5.6,15.3-7.9C958.7,37,960.6,36,962.4,34.7z"/>
</g>
<g>
	<g>
		<path class="st3" d="M1020,56.4c26.6-2.4,54,3.3,77.3,16.5c23.8,13.3,43.4,34.2,55.1,58.9c17.9,36.9,17.2,82.2-1.8,118.6
			c-17.3,33.9-49.9,59.6-87,68.4c-33.5,8.1-70.2,2.8-99.8-15.2c-28.6-17.1-50.4-45.3-59.6-77.3c-9.8-33.4-5.8-70.6,11.1-101.1
			c17-31.3,47.1-55.3,81.6-64.5C1004.5,58.6,1012.2,57.2,1020,56.4z M1014,68c-37.6,5.4-71.8,29.6-89.6,63.1
			c-18.8,34.3-19.5,77.7-1.8,112.6c15.2,30.9,44.1,54.8,77.4,63.7c14.6,4.3,30,4.8,45.1,3.7c24.7-2.6,48.6-12.8,67.3-29.2
			c16.9-14.4,29.6-33.6,36.4-54.7c7-21.7,8-45.3,2.5-67.4c-6.6-27.6-23.4-52.4-46.2-69.2C1079.3,71.4,1045.7,63.1,1014,68z"/>
	</g>
	<path class="st3" d="M1019.2,189.3c3.9,0.1,7.8-0.3,11.7,0.4l-0.1,0.7l-0.1,0.8c-13.9,13.7-27.7,27.5-41.3,41.4
		c-0.8,0.6-1.5,1.1-2.3,1.7c7.7-11.2,15.8-22.2,23.7-33.2c0.1-0.2,0.4-0.6,0.5-0.8c2.3-3.3,4.7-6.6,7.1-9.9
		C1018.5,190.2,1018.9,189.6,1019.2,189.3z"/>
	<path class="st3" d="M599,428.6c9-0.4,18,0,27-0.2c0.1,0.4,0.2,1.2,0.3,1.7c-3,0.3-6.5,0-8.7,2.3c-1.6,1.6-1.4,4-1.5,6
		c0,13.8,0,27.6,0,41.4c0.1,2-0.1,4.6,1.9,5.7c3.7,1.1,7.7,0.5,11.6,0.6c5.2,0,11.2,0.1,14.9-4.1c3-2.5,3.5-6.9,6.6-9.2
		c-0.9,5.9-3.5,11.4-4.9,17.1c-15.7,0.2-31.3,0-47,0.1l0-1.6c2.1-0.2,4.5,0.1,6.2-1.4c2.1-1.7,1.8-4.8,2-7.2c0-13.1,0-26.2,0-39.3
		c-0.1-2.7,0-5.5-1.1-8c-1.9-2.5-5.3-2.2-8.1-2.5L599,428.6z"/>
</g>
<g>
	<path class="st4" d="M1025.5,72c4.4,0,8.9,0,13.3,0c-2,3.6-3.9,7.2-6,10.7c-0.3,0-0.9,0-1.2,0C1029.4,79.3,1027.5,75.6,1025.5,72z"
		/>
	<path class="st4" d="M926.7,240c1.8,0.1,3.6,0.2,5.4,0.4c-1.1,1.1-1.6,3.9-3.4,3.4C927.9,242.6,927.3,241.3,926.7,240z"/>
</g>
<g>
	<path class="st5" d="M1011.4,73.9c1.7-0.3,3.4-0.5,5.1-0.8c-0.6,1.7-1.3,3.3-1.9,5C1013.5,76.7,1012.5,75.3,1011.4,73.9z"/>
	<path class="st5" d="M961.7,96.2c0.7-1.6,2.6-2.2,3.9-3.3c0.2,1.8,0.3,3.6,0.5,5.3C964.6,97.6,963.1,96.9,961.7,96.2z"/>
	<path class="st5" d="M921.4,150.7c1.5,1.1,2.9,2.3,3.6,4.1c-1.6,0.2-3.2,0.4-4.7,0.5C920.6,153.8,921,152.2,921.4,150.7z"/>
	<path class="st5" d="M1139.4,154.8c0.8-1.6,2-3,3.3-4.2c0.6,1.6,1.1,3.2,1.7,4.8C1142.7,155.2,1141,155,1139.4,154.8z"/>
	<path class="st5" d="M1143.2,171.6c1.4-1.1,2.8-2.2,4.2-3.3c0.2,1.7,0.5,3.4,0.7,5.1C1146.5,172.8,1144.8,172.2,1143.2,171.6z"/>
	<path class="st5" d="M1098.3,280.3c1.6,0.6,3.2,1.3,4.8,2c-1.4,1.1-2.8,2.2-4.2,3.2C1098.6,283.8,1098.5,282.1,1098.3,280.3z"/>
	<path class="st5" d="M977.4,292.7c0-1.9,2.5-2.2,3.7-3.3c0.1,1.8,0.2,3.5,0.3,5.3C980.1,294.1,978.7,293.5,977.4,292.7z"/>
	<path class="st5" d="M1048,305.4c0.6-1.7,1.1-3.4,1.7-5.1c1.1,1.4,2.3,2.8,3.5,4.2C1051.4,304.8,1049.7,305.1,1048,305.4z"/>
</g>
<g>
	<path class="st6" d="M1047.9,73.2c1.7,0.2,3.3,0.4,5,0.7c-1,1.5-2,2.9-3.2,4.3C1049.1,76.5,1048.5,74.8,1047.9,73.2z"/>
	<path class="st6" d="M920.3,222.8c1.7,0.4,3.4,0.9,5.1,1.4c-1.3,1.3-2.6,2.4-3.9,3.6C921,226.1,920.7,224.4,920.3,222.8z"/>
	<path class="st6" d="M993.7,299.9c1.2-1.3,2.6-2.6,4-3.7c0.3,1.8,0.5,3.6,0.8,5.4C996.9,301,995.3,300.5,993.7,299.9z"/>
</g>
<g>
	<path class="st7" d="M993.6,78.7c1.6-0.6,3.3-1.1,5-1.7c-0.3,1.7-0.6,3.4-1,5.1C996.2,81,994.9,79.9,993.6,78.7z"/>
	<path class="st7" d="M1098.8,92.9c1.4,1,2.8,2,4.3,3c-1.6,0.8-3.2,1.5-4.8,2.3C1098.4,96.4,1098.6,94.7,1098.8,92.9z"/>
	<path class="st7" d="M936,255.8c1.7-0.1,3.3-0.3,5-0.4c-0.5,1.4-1,2.8-1.5,4.1C937.5,259.5,937.1,257.1,936,255.8z"/>
</g>
<g>
	<path class="st8" d="M1066,77c1.6,0.5,3.2,1.1,4.8,1.6c-1.3,1-2.3,3.6-4.2,2.7C1066.2,79.9,1066.1,78.5,1066,77z"/>
</g>
<g>
	<path class="st9" d="M977.3,85.7c1.4-0.7,2.8-1.3,4.2-1.9c-0.1,1.7-0.2,3.4-0.3,5.1C979.9,88,977.8,87.4,977.3,85.7z"/>
</g>
<g>
	<path class="st10" d="M1082.9,83.8c1.7,0.6,3.4,1.3,4.6,2.7c-1.5,0.8-3,1.6-4.4,2.4C1083,87.2,1082.9,85.5,1082.9,83.8z"/>
</g>
<g>
	<path class="st11" d="M1031.6,101.3c0.4-0.2,1.2-0.7,1.6-1c-0.1,0.4-0.2,1.1-0.3,1.5c-0.4,2.2-0.8,4.4-0.8,6.6
		c0.1,22.5-0.3,45.1,0.2,67.6c-0.4-0.3-1.1-0.8-1.5-1.1c1.4-5.7,0.7-11.6,0.8-17.4c0.1-11.5-0.1-23,0.1-34.4c0-2.9,0-5.8-0.6-8.7
		C1030.1,110.1,1030.9,105.6,1031.6,101.3z"/>
</g>
<g>
	<path class="st11" d="M1032.1,108.5c0-2.2,0.4-4.5,0.8-6.6c3.1,21.9,7.1,43.7,10.6,65.6c0.7-0.1,2.2-0.4,3-0.6
		c-5.1,2.5-9.3,6.4-13.9,9.6c0,3.9,0,7.9,0.1,11.8c10.4-10.1,20.6-20.5,30.9-30.7c4.8-4.4,8.8-9.7,14-13.6
		c-8,11.4-16.1,22.7-24.3,33.9c8.2,1.2,16.3,2.6,24.4,4.1c-8.4-0.3-16.5-3.2-24.9-3.4c-2.3,3.5-4.8,6.8-7.2,10.2
		c17.1,0.1,34.3,0,51.4,0.1c7.8,0.3,15.7-0.6,23.5,0.3c-11.4,3-23.2,4-34.8,6.2c-10.8,1.9-21.6,3.5-32.3,5.3
		c3.7,5.4,7.9,10.5,11.2,16.2c-6.4-9.1-13.1-18.1-19.5-27.3c-4,0-8.1-0.1-12.1,0.1c11.6,11.9,23.4,23.5,35.1,35.3
		c3.1,3.3,6.8,5.9,9.3,9.7c-11.5-8-22.7-16.2-34-24.4c-0.8,8.6-2.7,17-4.1,25.4c0.4-8.7,3.4-17.1,3.5-25.9
		c-3.4-2.3-6.7-4.8-10.1-7.1c-0.2,19,0,38-0.1,57c-0.2,6,0.5,12-0.3,18c-2.9-12.1-4.2-24.4-6.4-36.6c-1.8-10.2-3.3-20.4-5.1-30.6
		c-5.8,3.8-11.3,8.2-17.1,12c9.2-7,18.7-13.6,28.1-20.4c-0.3-4,0.9-8.3-0.5-12.1c-0.1-0.4-0.3-1.3-0.4-1.7
		c-13.7-13.8-27.4-27.7-41.3-41.2c-0.9-1-1.7-2.2-2.5-3.3c11,7.7,21.9,15.6,32.8,23.4c0.7,0.5,1.4,1,2.1,1.5
		c2.9,2.1,5.8,4.3,8.8,6.3c0.4,0.3,1.1,0.8,1.5,1.1C1031.8,153.6,1032.2,131,1032.1,108.5z"/>
	<path class="st11" d="M1031.8,295.4c0.2,0,0.7,0.1,0.9,0.1c2.2,3.5,4.1,7.2,6.2,10.8c-4.5,0.1-8.9,0.1-13.4,0
		C1027.6,302.7,1029.5,299,1031.8,295.4z"/>
	<path class="st11" d="M508.5,427.1c0.4,0,1.1,0.1,1.5,0.2c0.3,7.2,1.5,14.3,1.1,21.5c-2.7-3.9-3.7-8.9-7.1-12.4
		c-5.7-6.3-15.6-7.7-23.1-4.1c-6.6,2.9-10.2,9.8-11.7,16.5c-1.9,9.4-2,19.8,2.8,28.4c6.3,11.3,23.8,13.8,33.1,4.9
		c2.6-2.5,4.5-5.6,7.5-7.7c-2.9,9.9-13.1,16.3-23,17.2h-4.6c-8.9-0.9-17.4-5.4-22.1-13.2c-8.6-13.6-6.1-33.6,6.3-44.1
		c7.3-6.2,17.7-8.6,26.9-6.1c3.6,0.9,6.9,3.5,10.8,2.9C507.3,429.8,507.9,428.4,508.5,427.1z"/>
	<path class="st11" d="M1304.4,430.1c0.1-0.4,0.3-1.3,0.4-1.7c11.6,0.1,23.3,0,34.9,0c4.1,0,8.2-0.3,12.2,0.4
		c0,4.6,0.3,9.1,0.1,13.7c-2.5-1.7-2-5.4-3.8-7.6c-1.5-2.1-4.1-2.9-6.5-2.9c-6.5-0.2-13.1,0-19.6-0.1c0,8.1,0,16.1,0,24.2
		c5.5-0.1,11,0.2,16.5-0.2c2.4-0.1,4.9-1.5,5.5-3.9c0.8-1.7,0.3-4.5,2.7-4.9c0.1,7.1,0,14.2,0.1,21.4l-1.7,0.2
		c-0.6-3.4-1.1-7.8-5.2-8.7c-5.9-1-11.9-0.2-17.9-0.5c0,7.4,0,14.8,0,22.2c0.1,1.6-0.3,4.3,1.9,4.5c6.1,0.9,12.4,0.4,18.6,0.1
		c6.4-0.5,9.8-6.7,12.6-11.7c0.4-0.1,1.3-0.2,1.8-0.3c-1.5,5.3-3.5,10.4-5.3,15.6c-15.7,0-31.4,0-47.1,0c0-0.4-0.1-1.2-0.1-1.7
		c2.9,0.1,5.8-0.3,8.1-2.3c1.2-5.3,0.7-10.7,0.8-16c0-6.5,0-13.1,0-19.6c-0.1-6.1,0.4-12.2-0.8-18.1
		C1310.2,430.4,1307.2,430.1,1304.4,430.1z"/>
	<path class="st11" d="M1431.9,430.1c0.1-0.4,0.3-1.2,0.4-1.6c8.5,0.1,17,0,25.5,0c0.1,0.4,0.2,1.2,0.3,1.6c-2.9-0.1-5.7,0.5-8,2.2
		c-1.3,4.9-0.8,10-0.9,15c0,10.5,0,20.9,0,31.4c-0.1,2.5,0.3,4.9,0.8,7.4c2.3,1.8,5.1,2.3,8,2.2l-0.1,1.6c-8.7,0-17.4,0-26,0
		c0-0.4,0.2-1.2,0.2-1.6c3,0.1,7.1-0.1,8-3.6c0.6-10.8,0.1-21.6,0.3-32.4c-0.2-6.3,0.4-12.7-0.4-19
		C1438.6,430.4,1434.8,430.2,1431.9,430.1z"/>
</g>
<g>
	<path class="st12" d="M946.6,109.7c1.8-2.4,3.8-4.4,6.2-6.2c0.7,2.7,1.4,5.5,1.8,8.3C951.9,111,949.3,110.4,946.6,109.7z"/>
</g>
<g>
	<path class="st13" d="M1111.6,103.5c2.4,1.7,4.5,3.8,6.2,6.2c-2.7,0.7-5.4,1.4-8.2,2.1C1110.3,109,1111,106.3,1111.6,103.5z"/>
	<path class="st13" d="M1132.4,240.3c1.8-0.1,3.6-0.2,5.4-0.3c-1,1.2-1,4-3,3.9C1133.9,242.7,1133.1,241.5,1132.4,240.3z"/>
</g>
<g>
	<path class="st11" d="M1027,128.9c1.1-5.2,1.2-11.1,3.3-15.8c-0.8,12-3.3,23.7-5.2,35.5c-0.8,6.8-2.1,13.5-3.1,20.2
		c-0.7-0.5-1.4-1-2.1-1.5c0.7-1.9,1.3-3.8,1.5-5.8C1022.7,150.6,1025.5,139.8,1027,128.9z"/>
</g>
<g>
	<path class="st14" d="M936,122.5c1.1-1.2,1.7-3.5,3.3-3.8c0.8,1.4,1.3,2.9,1.9,4.3C939.5,122.9,937.7,122.7,936,122.5z"/>
	<path class="st14" d="M917,168.4c1.4,1.1,2.8,2.2,4.3,3.3c-1.6,0.6-3.3,1.2-4.9,1.8C916.5,171.7,916.7,170,917,168.4z"/>
	<path class="st14" d="M916.3,205c1.6,0.6,3.3,1.2,4.9,1.8c-1.4,1.1-2.9,2.1-4.3,3.1C916.7,208.3,916.5,206.6,916.3,205z"/>
	<path class="st14" d="M1143.2,206.9c1.7-0.7,3.3-1.3,5-1.9c-0.3,1.7-0.5,3.3-0.8,5C1146,208.9,1144.6,207.9,1143.2,206.9z"/>
</g>
<g>
	<path class="st15" d="M1125.3,118.3c1,1.4,2.1,2.8,3.1,4.2c-1.8,0.2-3.6,0.4-5.3,0.5C1123.9,121.5,1124.6,119.9,1125.3,118.3z"/>
	<path class="st15" d="M1123.3,255.4c1.7,0.1,3.4,0.3,5.1,0.4c-1,1.3-1.6,3.4-3.3,3.9C1124.4,258.3,1123.8,256.8,1123.3,255.4z"/>
</g>
<g>
	<path class="st16" d="M926.8,138.5c0.9-1.3,0.9-4,2.8-4.2c0.9,1.3,1.6,2.6,2.4,4C930.3,138.4,928.5,138.4,926.8,138.5z"/>
</g>
<g>
	<path class="st17" d="M1132.4,138.3c1.1-1.3,1.5-3.9,3.4-3.9c0.6,1.4,1.2,2.8,1.8,4.2C1135.8,138.4,1134.1,138.3,1132.4,138.3z"/>
	<path class="st17" d="M955.2,191.2c5.4,0.7,10.7,1.7,16,2.3c8.9,1,17.5,3.4,26.4,4.4c4.6,0.6,9.2,1.1,13.6,2.4
		c-0.1,0.2-0.4,0.6-0.5,0.8c-1.4-0.5-2.6-1.3-4-1.4c-8.2-1.2-16.5-2.2-24.6-4C973.2,193.7,964.1,193.2,955.2,191.2z"/>
	<path class="st17" d="M1083.1,289.5c1.3,1,3.8,1.3,3.9,3.3c-1.3,0.8-2.7,1.4-4.1,2.1C1082.9,293,1083,291.2,1083.1,289.5z"/>
</g>
<g>
	<path class="st18" d="M915,183c3.8,1.3,7.2,3.5,10.6,5.6c0,0.3,0.1,0.9,0.2,1.1c-3.5,2.2-7.2,4.2-10.8,6.1
		C915,191.5,915,187.3,915,183z"/>
</g>
<g>
	<path class="st19" d="M1138.7,188.6c3.4-2.2,7.1-4,10.6-6.1c0,4.5,0,8.9,0,13.4c-3.7-2-7.4-4-10.9-6.2
		C1138.5,189.4,1138.6,188.8,1138.7,188.6z"/>
</g>
<g>
	<path class="st20" d="M943.5,188.6c3.7-0.8,7.5-1.2,11.3-1.4c-2.5,0.5-5,1.1-7.4,1.7c17.2,0.5,34.3,0.4,51.5,0.4
		c6.9-0.1,13.8,0.5,20.6-0.6c3.8-0.4,7.7-0.2,11.6-0.4c0.1,0.4,0.3,1.3,0.4,1.7l-0.2,0.5l-0.3-0.1l0.1-0.7
		c-3.9-0.8-7.8-0.4-11.7-0.4c-0.2,0.3-0.6,0.9-0.9,1.2c-4.4-1.2-9-0.8-13.6-0.8c-14.8,0-29.6-0.1-44.3,0.1
		C954.9,190.1,948.3,191.9,943.5,188.6z"/>
</g>
<g>
	<path class="st21" d="M1139,224.1c1.7-0.5,3.4-0.9,5.2-1.3c-0.4,1.6-0.9,3.3-1.4,4.9C1141.5,226.5,1140.3,225.3,1139,224.1z"/>
</g>
<g>
	<path class="st22" d="M946.4,268.7c2.7-0.7,5.4-1.4,8.2-2c-0.5,2.8-1.1,5.6-1.9,8.4C950.4,273.2,948.3,271.1,946.4,268.7z"/>
	<path class="st22" d="M1011.2,304.4c1.1-1.3,2.3-2.5,3.6-3.7c0.5,1.6,1.1,3.1,1.6,4.7C1014.7,305.1,1012.9,304.8,1011.2,304.4z"/>
</g>
<g>
	<path class="st23" d="M1109.6,266.7c2.8,0.5,5.5,1.2,8.3,2c-1.9,2-3.4,5.3-6.3,5.6C1110.8,271.8,1110.2,269.3,1109.6,266.7z"/>
</g>
<g>
	<path class="st24" d="M961.3,282.3c1.6-0.7,3.2-1.3,4.8-2c-0.2,1.7-0.3,3.4-0.5,5C964.1,284.4,962.7,283.4,961.3,282.3z"/>
</g>
<g>
	<path class="st25" d="M1066,301.5c0.5-1.6-0.4-4.2,1.5-5c1.2,1,2.3,2.2,3.4,3.3C1069.2,300.4,1067.6,301,1066,301.5z"/>
</g>
<g>
	<path class="st26" d="M661.8,430.1c0.2-0.4,0.6-1.2,0.9-1.6c8.3-0.2,16.6-0.1,24.9-0.1c1.2-0.3,1.9,0.9,2.7,1.5
		c-3.6,0.3-7.6,0.4-10.2,3.3c-0.4,2.8-0.8,5.5-0.8,8.3c0,12.1,0,24.2,0,36.3c0,2.4,0.5,4.8,1,7.2c6.4,1.9,13.3,1,20,0.7
		c6.6-0.5,10.7-6.6,12.8-12.2c0.4-0.1,1.2-0.2,1.7-0.3c-1.6,5.7-3.5,11.2-5.3,16.8c-15.8,0-31.6,0-47.4,0c0-0.4,0.2-1.2,0.2-1.7
		c2.9,0,6.6,0.1,7.9-3.1c1.4-7.3,0.6-14.8,0.8-22.1c-0.2-10.2,0.6-20.4-0.8-30.6C667.8,430.5,664.8,430,661.8,430.1z"/>
	<path class="st26" d="M1097.2,430c0.1-0.4,0.3-1.2,0.4-1.6c8.6,0,17.2,0,25.8,0c0,0.4,0.1,1.2,0.2,1.6c-2.5,0.4-5.5,0.1-7.2,2.2
		c-1.3,1.8-1.2,4.2-1.3,6.3c-0.1,8.5,0,17,0,25.5c0.1,5.1,0,10.4,1.8,15.3c1.4,3.9,5.2,6.6,9.1,7.7c6.8,1.3,14.5,0.1,19.5-5
		c3.7-3.6,4.1-9.1,4.3-14c0.1-9.8,0-19.7,0-29.5c-0.2-2.3,0-5.1-1.7-6.8c-2.2-1.7-5.1-1.4-7.7-1.8c0.5-0.5,1-1,1.6-1.4
		c5.7,0.1,11.3,0,17,0c1.6-0.2,2.9,0.6,4.4,1.2c-3.2,0.7-7.7,0.5-8.9,4.2c-1.4,6.3-0.4,12.9-0.7,19.3c-0.3,8.8,1,17.9-2.1,26.4
		c-3.1,7.5-11.2,11.2-18.8,11.9h-6.1c-5.7-0.8-11.8-2.5-15.6-7.1c-4.3-4.7-4.9-11.3-4.8-17.4c-0.1-9.1,0-18.3,0-27.4
		c-0.1-2.5,0-5.4-1.6-7.5C1102.8,429.9,1099.7,430.4,1097.2,430z"/>
	<path class="st26" d="M1465.3,429.8c0.9-0.5,1.6-1.4,2.8-1.3c4.7-0.2,9.3,0,14-0.1c12.8,15.1,25,30.7,37.7,45.9
		c0.2-13,0.3-26.1,0-39.1c0.2-4.4-4.9-5.3-8.3-5.1c0-0.4,0.1-1.3,0.1-1.7c7,0,13.9,0,20.9,0c0.1,0.4,0.3,1.2,0.3,1.6
		c-2.7,0.2-6,0-7.8,2.5c-1.1,2.5-1.1,5.2-1.1,7.9c0,13.1,0,26.2,0,39.3c0,3.9,0.2,7.9-0.4,11.8c-5.2-4.7-9.1-10.8-13.7-16
		c-9.2-11.3-18.6-22.6-27.7-34c-0.2,12.8-0.1,25.5-0.1,38.3c0.2,2.4-0.2,5.2,1.7,7c1.8,1.8,4.5,1.3,6.8,1.5c0.1,0.4,0.2,1.2,0.2,1.6
		c-6.9,0-13.9,0.2-20.8-0.1c-0.2-0.4-0.7-1.1-0.9-1.4c2.8-0.3,6.6,0.2,8.2-2.8c1.1-3.1,0.8-6.5,0.9-9.8c-0.1-12.8,0.1-25.7-0.1-38.5
		C1475.9,432.3,1470.3,430.3,1465.3,429.8z"/>
	<path class="st26" d="M36.2,465.5c0-4.2-0.3-8.4,0.5-12.6c131.7,0.1,263.3,0,395,0c0,4.2,0,8.4,0,12.7c-113.5,0-226.9,0-340.4,0
		C73,465.5,54.6,465.7,36.2,465.5z"/>
</g>
<g>
	<path class="st27" d="M725,430c0.4-0.5,0.9-1,1.3-1.6c15.4,0.1,30.8,0,46.2,0c0.7,4.6,0.9,9.3,0.8,14c-2.4-0.4-2-3.3-2.9-5
		c-0.7-3.3-4-5.4-7.2-5.4c-6.7-0.3-13.5,0-20.2-0.1c0,8.1,0,16.1,0,24.2c5.4,0,10.9,0.2,16.3-0.1c2.4-0.2,5.2-1.2,5.8-3.8
		c0.8-1.7,0.5-4.4,2.6-5.2c0.1,7.3,0.2,14.7,0,22c-3.2-2-1.3-7.7-5.6-8.7c-6.1-1.8-12.7-0.4-18.9-0.8c0,7.1,0,14.2,0,21.3
		c0.2,1.8-0.4,4.2,1.5,5.3c3.8,0.9,7.9,0.2,11.8,0.4c4.4-0.1,9.5,0.6,13.2-2.5c3.6-2.7,4.7-7.4,8.2-10.1c-0.4,5.6-3.4,10.5-4.7,15.9
		c-15.8,0.2-31.6,0-47.4,0.1l0-1.6c2.4-0.2,5.2,0.1,7.1-1.7c1.7-1.4,1.4-3.8,1.6-5.8c0-14.4,0-28.8,0-43.3c0.1-2.1-0.5-4.1-1.1-6.1
		C730.5,430.5,727.7,430.1,725,430z"/>
</g>
<g>
	<path class="st28" d="M1632.5,452.9c131.7,0,263.4,0,395.1,0c0,4.2,0,8.4,0,12.7c-131.7,0-263.5,0-395.2,0
		C1632.5,461.4,1632.5,457.1,1632.5,452.9z"/>
</g>
</svg>
