<?xml version="1.0" encoding="utf-8"?>
<!-- Generator: Adobe Illustrator 24.1.3, SVG Export Plug-In . SVG Version: 6.00 Build 0)  -->
<svg version="1.1" id="Layer_1" xmlns="http://www.w3.org/2000/svg" xmlns:xlink="http://www.w3.org/1999/xlink" x="0px" y="0px"
	 viewBox="0 0 56 56" style="enable-background:new 0 0 56 56;" xml:space="preserve">
<style type="text/css">
	.st0{fill:none;stroke:#FFFFFF;stroke-width:3.5;stroke-linecap:round;stroke-linejoin:round;}
</style>
<g>
	<path class="st0" d="M19.3,29.8c1.7,0,3.4,0.5,4.9,1.5c1.4,1,2.6,2.3,3.2,3.9c0.7,1.6,0.8,3.4,0.5,5.1c-0.3,1.7-1.2,3.3-2.4,4.5
		c-1.2,1.2-2.8,2.1-4.5,2.4c-1.7,0.3-3.5,0.2-5.1-0.5s-3-1.8-3.9-3.2c-1-1.4-1.5-3.1-1.5-4.9V37"/>
	<path class="st0" d="M36.8,29.8c-1.7,0-3.4,0.5-4.9,1.5c-1.4,1-2.6,2.3-3.2,3.9c-0.7,1.6-0.8,3.4-0.5,5.1c0.3,1.7,1.2,3.3,2.4,4.5
		c1.2,1.2,2.8,2.1,4.5,2.4c1.7,0.3,3.5,0.2,5.1-0.5s3-1.8,3.9-3.2c1-1.4,1.5-3.1,1.5-4.9V37"/>
	<path class="st0" d="M15.7,37.6H14c-2.5,0-4.9-0.9-6.8-2.5S4,31.3,3.6,28.8c-0.4-2.4,0-5,1.3-7.1s3.2-3.8,5.6-4.6v-1.5
		c0-2.3,0.9-4.5,2.6-6.2C14.7,7.9,16.9,7,19.2,7s4.5,0.9,6.2,2.6c1.6,1.6,2.6,3.9,2.6,6.2v22.8"/>
	<path class="st0" d="M40.3,37.6H42c2.5,0,4.9-0.9,6.8-2.5c1.9-1.6,3.2-3.8,3.6-6.3c0.4-2.4,0-5-1.3-7.1s-3.2-3.8-5.6-4.6v-1.5
		c0-2.3-0.9-4.5-2.6-6.2C41.3,7.9,39.1,7,36.8,7s-4.5,0.9-6.2,2.6C29,11.2,28,13.5,28,15.8"/>
	<path class="st0" d="M43.8,24.5h-0.9c-1.6,0-3.2-0.6-4.3-1.8c-1.1-1.1-1.8-2.7-1.8-4.3v-0.9"/>
	<path class="st0" d="M12.3,24.5h0.9c1.6,0,3.2-0.6,4.3-1.8c1.1-1.1,1.8-2.7,1.8-4.3v-0.9"/>
</g>
</svg>
