<?xml version="1.0" encoding="utf-8"?>
<!-- Generator: Adobe Illustrator 24.1.3, SVG Export Plug-In . SVG Version: 6.00 Build 0)  -->
<svg version="1.1" id="Layer_1" xmlns="http://www.w3.org/2000/svg" xmlns:xlink="http://www.w3.org/1999/xlink" x="0px" y="0px"
	 viewBox="0 0 56 56" style="enable-background:new 0 0 56 56;" xml:space="preserve">
<style type="text/css">
	.st0{fill:#FFFFFF;}
</style>
<path class="st0" d="M52.1,21.4c-0.6,0.9-1.6,1.2-2.5,1.7c-1.1,0.6-2.7,1-3.3,1.9c-0.6,1-0.2,2.5-0.2,3.8c0,1.6,0,3.1,0,4.7
	c0,1.1-0.4,2-1.1,2.8c-1.2,1.2-2.5,2.4-4,3.3c-0.6,0.4-0.8,0.8-0.8,1.5c0,2,0,4.1,0,6.1c0,1.2-0.5,1.9-1.5,1.9s-1.5-0.7-1.5-2
	c0-1.8,0-3.5,0-5.3c0-0.1-0.1-0.1-0.1-0.2c-2.4,0.9-4.9,1.4-7.5,1.5c-6.9,0.3-12.9-1.8-17.9-6.7c-0.9-0.9-1.3-1.9-1.3-3.1
	c0-2.5,0-5.1,0-7.6c0-0.5-0.1-0.8-0.6-1.1c-1.4-0.7-2.8-1.5-4.2-2.2c-0.6-0.4-1-0.8-1.1-1.5c0-0.7,0.5-1.2,1.1-1.5
	c7.2-3.9,14.5-7.7,21.7-11.6c0.7-0.4,1.3-0.3,2,0c7.2,3.9,14.4,7.7,21.6,11.5c0.4,0.2,0.7,0.5,1.1,0.8C52.1,20.6,52.1,21,52.1,21.4z
	 M9.2,20.9c6.3,3.4,12.4,6.6,18.5,9.9c0.3,0.2,0.6,0.3,0.9,0.1c2.5-1.4,5-2.7,7.6-4.1c-1.1-0.6-2.1-1.2-3.2-1.7
	c-1.8-1-3.6-1.9-5.4-2.9c-0.7-0.4-1-0.9-0.9-1.7c0.1-0.7,0.6-1.1,1.3-1.2c0.5-0.1,0.9,0.2,1.3,0.4c3.1,1.7,6.2,3.3,9.3,5
	c0.4,0.2,0.7,0.4,1.1,0.1c2.5-1.3,4.9-2.7,7.4-4c-0.1-0.1-0.2-0.2-0.3-0.2c-5.8-3.1-11.9-6.4-18-9.6c-0.5-0.3-0.8-0.1-1.2,0.1
	c-2.9,1.5-5.7,3.1-8.6,4.6C15.8,17.4,12.6,19.1,9.2,20.9z M37.2,29.7c-2.6,1.4-5.1,2.7-7.6,4.1c-0.9,0.5-1.7,0.5-2.6,0
	c-4.2-2.3-8.4-4.5-12.6-6.8c-0.7-0.4-0.9-0.3-0.9,0.5c0,1.9,0,3.8,0,5.7c0,0.5,0.1,0.9,0.5,1.3c6.1,6.2,15.7,7,22.7,4.1
	c0.4-0.2,0.6-0.4,0.6-0.8C37.2,35.1,37.2,32.5,37.2,29.7z M40.2,36.6c0.7-0.6,1.2-1,1.7-1.4c1-0.7,1.4-1.6,1.3-2.9
	c-0.1-1.1,0-2.3,0-3.4c0-2.4,0-2.4-2.1-1.2c-0.4,0.2-0.8,0.3-0.8,1C40.2,31.2,40.2,33.7,40.2,36.6z"/>
</svg>
