<svg width="56" height="56" viewBox="0 0 56 56" fill="none" xmlns="http://www.w3.org/2000/svg">
<g clip-path="url(#clip0_1_493)">
<path d="M42 43.75C44.8995 43.75 47.25 41.3995 47.25 38.5C47.25 35.6005 44.8995 33.25 42 33.25C39.1005 33.25 36.75 35.6005 36.75 38.5C36.75 41.3995 39.1005 43.75 42 43.75Z" stroke="white" stroke-width="3.5" stroke-linecap="round" stroke-linejoin="round"/>
<path d="M35 49C35.8028 45.9812 38.6313 43.75 42 43.75C45.3687 43.75 48.1972 45.9812 49 49" stroke="white" stroke-width="3.5" stroke-linecap="round" stroke-linejoin="round"/>
<path d="M7 17.5V12.25C7 11.7859 7.18437 11.3408 7.51256 11.0126C7.84075 10.6844 8.28587 10.5 8.75 10.5H20.2759C20.7394 10.5002 21.1839 10.6843 21.5119 11.0119L28 17.5" stroke="white" stroke-width="3.5" stroke-linecap="round" stroke-linejoin="round"/>
<path d="M26.3725 45.5H8.61438C8.18657 45.4988 7.77662 45.3284 7.47411 45.0259C7.17161 44.7234 7.00115 44.3134 7 43.8856V17.5H47.25C47.7141 17.5 48.1592 17.6844 48.4874 18.0126C48.8156 18.3408 49 18.7859 49 19.25V26.25" stroke="white" stroke-width="3.5" stroke-linecap="round" stroke-linejoin="round"/>
</g>
<defs>
<clipPath id="clip0_1_493">
<rect width="56" height="56" fill="white"/>
</clipPath>
</defs>
</svg>
