<svg width="95" height="19" viewBox="0 0 95 19" fill="none" xmlns="http://www.w3.org/2000/svg">
<path d="M9.5 0L11.6329 6.56434H18.535L12.9511 10.6213L15.084 17.1857L9.5 13.1287L3.91604 17.1857L6.04892 10.6213L0.464963 6.56434H7.36712L9.5 0Z" fill="url(#paint0_linear_1_411)"/>
<path d="M28.5 0L30.6329 6.56434H37.535L31.9511 10.6213L34.084 17.1857L28.5 13.1287L22.916 17.1857L25.0489 10.6213L19.465 6.56434H26.3671L28.5 0Z" fill="url(#paint1_linear_1_411)"/>
<path d="M47.5 0L49.6329 6.56434H56.535L50.9511 10.6213L53.084 17.1857L47.5 13.1287L41.916 17.1857L44.0489 10.6213L38.465 6.56434H45.3671L47.5 0Z" fill="url(#paint2_linear_1_411)"/>
<path d="M66.5 0L68.6329 6.56434H75.535L69.9511 10.6213L72.084 17.1857L66.5 13.1287L60.916 17.1857L63.0489 10.6213L57.465 6.56434H64.3671L66.5 0Z" fill="url(#paint3_linear_1_411)"/>
<path d="M85.5 0L87.6329 6.56434H94.535L88.9511 10.6213L91.084 17.1857L85.5 13.1287L79.916 17.1857L82.0489 10.6213L76.465 6.56434H83.3671L85.5 0Z" fill="url(#paint4_linear_1_411)"/>
<defs>
<linearGradient id="paint0_linear_1_411" x1="-2.6" y1="-8.5" x2="17.3672" y2="-7.22736" gradientUnits="userSpaceOnUse">
<stop stop-color="#8F834F"/>
<stop offset="1" stop-color="#DBCD89"/>
</linearGradient>
<linearGradient id="paint1_linear_1_411" x1="16.4" y1="-8.5" x2="36.3672" y2="-7.22736" gradientUnits="userSpaceOnUse">
<stop stop-color="#8F834F"/>
<stop offset="1" stop-color="#DBCD89"/>
</linearGradient>
<linearGradient id="paint2_linear_1_411" x1="35.4" y1="-8.5" x2="55.3672" y2="-7.22736" gradientUnits="userSpaceOnUse">
<stop stop-color="#8F834F"/>
<stop offset="1" stop-color="#DBCD89"/>
</linearGradient>
<linearGradient id="paint3_linear_1_411" x1="54.4" y1="-8.5" x2="74.3672" y2="-7.22736" gradientUnits="userSpaceOnUse">
<stop stop-color="#8F834F"/>
<stop offset="1" stop-color="#DBCD89"/>
</linearGradient>
<linearGradient id="paint4_linear_1_411" x1="73.4" y1="-8.5" x2="93.3672" y2="-7.22736" gradientUnits="userSpaceOnUse">
<stop stop-color="#8F834F"/>
<stop offset="1" stop-color="#DBCD89"/>
</linearGradient>
</defs>
</svg>
