<?xml version="1.0" encoding="utf-8"?>
<!-- Generator: Adobe Illustrator 24.1.3, SVG Export Plug-In . SVG Version: 6.00 Build 0)  -->
<svg version="1.1" id="Layer_1" xmlns="http://www.w3.org/2000/svg" xmlns:xlink="http://www.w3.org/1999/xlink" x="0px" y="0px"
	 viewBox="0 0 56 56" style="enable-background:new 0 0 56 56;" xml:space="preserve">
<style type="text/css">
	.st0{fill:#FFFFFF;}
</style>
<path class="st0" d="M27.9,18.3c-5.8,0-11.6,0-17.4,0c-1,0-1.2,0.3-1.2,1.2c0,7.1,0,14.2,0,21.3c0,0.9,0.2,1.2,1.1,1.1
	c5.2,0,10.3,0,15.5,0c1.2,0,1.9,0.6,2,1.5c0.1,1.1-0.6,1.9-1.9,1.9c-3.2,0-6.4,0-9.6,0c-2.3,0-4.6,0-6.9,0C7.2,45.2,6,44,6,41.7
	c0-10,0-20,0-30c0-2.2,1.3-3.5,3.5-3.6c3.6,0,7.2,0,10.8,0c1.2,0,2.1,0.4,2.9,1.3c1.5,1.5,3.1,3,4.6,4.6c0.6,0.6,1.2,0.9,2.1,0.9
	c5.2,0,10.5,0,15.7,0c3.1,0,4.2,1.2,4.2,4.3c0,1.9,0,3.7,0,5.6c0,1.3-0.7,2-1.7,2s-1.6-0.8-1.6-2c0-1.8,0-3.6,0-5.4c0-0.8-0.2-1-1-1
	C39.6,18.3,33.7,18.3,27.9,18.3z M23.5,14.9c0.1-0.1,0.1-0.2,0.2-0.3c-0.9-0.8-1.8-1.5-2.6-2.4c-0.5-0.5-0.9-0.7-1.6-0.7
	c-2.6,0-5.2,0-7.9,0c-2.3,0-2.3,0-2.3,2.4c0,0.8,0.3,1,1,1c3.8,0,7.6,0,11.4,0C22.4,14.9,22.9,14.9,23.5,14.9z"/>
<path class="st0" d="M36.5,41.6c-2.7-3.2-2.1-6.8-0.6-8.8c2.2-3,6.4-3.7,9.4-1.5s3.7,6.4,1.5,9.3c-0.5,0.7-0.5,1,0.2,1.6
	c1.3,1,2.1,2.3,2.6,3.9c0.3,1.2,0,2.1-0.9,2.4c-1,0.3-1.8-0.1-2.2-1.3c-0.9-2.3-2.9-3.8-5.2-3.7c-2.3,0-4.1,1.4-5,3.8
	c-0.4,1.1-1.3,1.6-2.3,1.2c-0.9-0.3-1.3-1.2-1-2.3C33.6,44.3,34.8,42.8,36.5,41.6z M44.7,36.8c0-1.9-1.5-3.4-3.4-3.4
	c-1.8,0-3.3,1.5-3.4,3.3c0,1.8,1.5,3.4,3.3,3.5C43.1,40.2,44.7,38.7,44.7,36.8z"/>
</svg>
